<?xml version="1.0" encoding="UTF-8"?>
<svg width="200px" height="62px" viewBox="0 0 200 62" version="1.1" xmlns="http://www.w3.org/2000/svg" xmlns:xlink="http://www.w3.org/1999/xlink">
    <title>Logo / Infobip horizontal</title>
    <g id="EU-projekt" stroke="none" stroke-width="1" fill="none" fill-rule="evenodd">
        <g id="EN" transform="translate(-115.000000, -80.000000)" fill-rule="nonzero">
            <g id="Logo-/-Infobip-horizontal" transform="translate(115.000000, 80.000000)">
                <g id="Group" transform="translate(74.285714, 12.857143)" fill="#373A3B">
                    <path d="M23.8571429,8.57142857 C21.2857143,8.57142857 19.1428571,9.42857143 17.5714286,11.1428571 L16.7142857,9 L11.4285714,9 L11.4285714,28 L18.1428571,28 L18.1428571,17.8571429 C18.1428571,15.5714286 19.5714286,14.1428571 21.7142857,14.1428571 C23.4285714,14.1428571 24.7142857,15.4285714 24.7142857,17.1428571 L24.7142857,28 L31.4285714,28 L31.4285714,16 C31.4285714,13.8571429 30.7142857,12 29.2857143,10.7142857 C28,9.28571429 26.1428571,8.57142857 23.8571429,8.57142857 Z" id="Path"></path>
                    <g id="Rectangle">
                        <rect x="1" y="0.285714286" width="6.71428571" height="6.71428571"></rect>
                        <rect x="1" y="9.14285714" width="6.71428571" height="19"></rect>
                    </g>
                    <path d="M123.285714,11.4285714 C121.571429,9.57142857 119.571429,8.57142857 117,8.57142857 C114.714286,8.57142857 112.857143,9.28571429 111.285714,10.8571429 L110.428571,9.14285714 L105,9.14285714 L105,36.1428571 L111.714286,36.1428571 L111.714286,26.8571429 C113.285714,28 114.857143,28.7142857 116.857143,28.7142857 C119.428571,28.7142857 121.571429,27.7142857 123.142857,26 C124.857143,24.1428571 125.571429,21.7142857 125.571429,18.8571429 C125.714286,15.7142857 124.857143,13.2857143 123.285714,11.4285714 Z M115.142857,23.2857143 C113.142857,23.2857143 111.714286,21.7142857 111.714286,19.5714286 L111.714286,17.5714286 C111.714286,15.4285714 113.142857,13.8571429 115.142857,13.8571429 C117.285714,13.8571429 118.857143,15.7142857 118.857143,18.5714286 C118.857143,21.2857143 117.285714,23.2857143 115.142857,23.2857143 Z" id="Shape"></path>
                    <g transform="translate(92.857143, 0.000000)">
                        <path d="M5.14285714,0.142857143 C3,0.142857143 1.28571429,1.71428571 1.28571429,4 C1.28571429,6.14285714 3,7.85714286 5.14285714,7.85714286 C7.42857143,7.85714286 9,6.14285714 9,4 C9,1.85714286 7.42857143,0.142857143 5.14285714,0.142857143 Z" id="Path"></path>
                        <rect id="Rectangle" x="1.71428571" y="9.14285714" width="6.71428571" height="19"></rect>
                    </g>
                    <path d="M66.4285714,11.4285714 C64.4285714,9.57142857 61.8571429,8.57142857 58.5714286,8.57142857 C55.4285714,8.57142857 52.8571429,9.42857143 50.7142857,11.4285714 C48.7142857,13.2857143 47.7142857,15.7142857 47.7142857,18.5714286 C47.7142857,21.4285714 48.7142857,23.8571429 50.7142857,25.7142857 C52.8571429,27.5714286 55.4285714,28.5714286 58.5714286,28.5714286 C61.7142857,28.5714286 64.4285714,27.5714286 66.4285714,25.8571429 C68.4285714,24 69.4285714,21.5714286 69.4285714,18.7142857 C69.4285714,15.7142857 68.4285714,13.2857143 66.4285714,11.4285714 Z M58.5714286,23.2857143 C56.2857143,23.2857143 54.7142857,21.2857143 54.7142857,18.5714286 C54.7142857,15.7142857 56.2857143,13.8571429 58.5714286,13.8571429 C60.8571429,13.8571429 62.5714286,15.8571429 62.5714286,18.5714286 C62.5714286,21.4285714 60.8571429,23.2857143 58.5714286,23.2857143 Z" id="Shape"></path>
                    <path d="M45,6 C45.5714286,6 46.2857143,6.14285714 47.2857143,6.28571429 L48.1428571,1.28571429 C46.5714286,0.857142857 45,0.714285714 43.4285714,0.714285714 C41.2857143,0.714285714 39.5714286,1.28571429 38.2857143,2.57142857 C37,3.85714286 36.2857143,5.42857143 36.2857143,7.42857143 L36.2857143,9.14285714 L33.1428571,9.14285714 L33.1428571,14.2857143 L36.2857143,14.2857143 L36.2857143,28.1428571 L43,28.1428571 L43,14.2857143 L46.8571429,14.2857143 L46.8571429,9.14285714 L43,9.14285714 L43,8 C43,6.71428571 43.7142857,6 45,6 Z" id="Path"></path>
                    <path d="M89.5714286,11.4285714 C87.8571429,9.57142857 85.8571429,8.57142857 83.2857143,8.57142857 C81.2857143,8.57142857 79.5714286,9.14285714 78.1428571,10.4285714 L78.1428571,1 L71.4285714,1 L71.4285714,28 L76.8571429,28 L77.7142857,26.2857143 C79.1428571,27.7142857 81,28.5714286 83.2857143,28.5714286 C85.8571429,28.5714286 88,27.5714286 89.5714286,25.8571429 C91.2857143,24 92.1428571,21.5714286 92.1428571,18.7142857 C92.1428571,15.7142857 91.2857143,13.2857143 89.5714286,11.4285714 Z M81.5714286,23.2857143 C79.5714286,23.2857143 78.1428571,21.7142857 78.1428571,19.5714286 L78.1428571,17.5714286 C78.1428571,15.4285714 79.5714286,13.8571429 81.5714286,13.8571429 C83.7142857,13.8571429 85.2857143,15.7142857 85.2857143,18.5714286 C85.2857143,21.2857143 83.7142857,23.2857143 81.5714286,23.2857143 Z" id="Shape"></path>
                </g>
                <g id="Group" transform="translate(11.428571, 11.428571)" fill="#F15C22">
                    <path d="M25.5714286,15.2857143 L25.5714286,23.7142857 C25.5714286,24.7142857 24.7142857,25.4285714 23.8571429,25.4285714 L15.4285714,25.4285714 C14.4285714,25.4285714 13.7142857,24.5714286 13.7142857,23.7142857 L13.7142857,15.2857143 C13.7142857,14.2857143 14.5714286,13.5714286 15.4285714,13.5714286 L23.8571429,13.5714286 C24.8571429,13.5714286 25.5714286,14.2857143 25.5714286,15.2857143 Z" id="Path"></path>
                    <path d="M34.1428571,5 C31.7142857,2.57142857 26,1 19.5714286,1 C13.1428571,1 7.42857143,2.57142857 5,5 C2.57142857,7.42857143 1,13.1428571 1,19.5714286 C1,26 2.57142857,31.7142857 5,34.1428571 C7.42857143,36.5714286 13.1428571,38.1428571 19.5714286,38.1428571 C26,38.1428571 31.7142857,36.5714286 34.1428571,34.1428571 C35.2857143,33 36.2857143,30.8571429 37,28.4285714 C37.7142857,25.8571429 38.1428571,22.8571429 38.1428571,19.7142857 C38,13.1428571 36.5714286,7.42857143 34.1428571,5 Z M28.4285714,28.4285714 C27.8571429,29 26.4285714,30.4285714 19.4285714,30.4285714 C12.4285714,30.4285714 11,28.8571429 10.4285714,28.4285714 C10,27.8571429 8.57142857,26.4285714 8.57142857,19.4285714 C8.57142857,12.4285714 10.1428571,11 10.5714286,10.4285714 C11,9.85714286 12.5714286,8.42857143 19.5714286,8.42857143 C26.5714286,8.42857143 28,10 28.5714286,10.4285714 C29,11 30.5714286,12.4285714 30.5714286,19.4285714 C30.5714286,26.4285714 29,27.8571429 28.4285714,28.4285714 Z" id="Shape"></path>
                    <path d="M25.5714286,15.2857143 L25.5714286,23.7142857 C25.5714286,24.7142857 24.7142857,25.4285714 23.8571429,25.4285714 L15.4285714,25.4285714 C14.4285714,25.4285714 13.7142857,24.5714286 13.7142857,23.7142857 L13.7142857,15.2857143 C13.7142857,14.2857143 14.5714286,13.5714286 15.4285714,13.5714286 L23.8571429,13.5714286 C24.8571429,13.5714286 25.5714286,14.2857143 25.5714286,15.2857143 Z" id="Path"></path>
                </g>
                <path d="M37,26.7142857 L37,35.1428571 C37,36.1428571 36.1428571,36.8571429 35.2857143,36.8571429 L26.8571429,36.8571429 C25.8571429,36.8571429 25.1428571,36 25.1428571,35.1428571 L25.1428571,26.7142857 C25.1428571,25.7142857 26,25 26.8571429,25 L35.2857143,25 C36.2857143,25 37,25.7142857 37,26.7142857 Z" id="Path" fill="#FF5A00"></path>
                <path d="M37,26.7142857 L37,35.1428571 C37,36.1428571 36.1428571,36.8571429 35.2857143,36.8571429 L26.8571429,36.8571429 C25.8571429,36.8571429 25.1428571,36 25.1428571,35.1428571 L25.1428571,26.7142857 C25.1428571,25.7142857 26,25 26.8571429,25 L35.2857143,25 C36.2857143,25 37,25.7142857 37,26.7142857 Z" id="Path" fill="#FF5A00"></path>
                <path d="M45.5714286,16.4285714 C43.1428571,14 37.4285714,12.4285714 31,12.4285714 C24.5714286,12.4285714 18.8571429,14 16.4285714,16.4285714 C14,18.8571429 12.4285714,24.5714286 12.4285714,31 C12.4285714,37.4285714 14,43.1428571 16.4285714,45.5714286 C18.8571429,48 24.5714286,49.5714286 31,49.5714286 C37.4285714,49.5714286 43.1428571,48 45.5714286,45.5714286 C46.7142857,44.4285714 47.7142857,42.2857143 48.4285714,39.8571429 C49.1428571,37.2857143 49.5714286,34.2857143 49.5714286,31.1428571 C49.4285714,24.5714286 48,18.8571429 45.5714286,16.4285714 Z M39.8571429,39.8571429 C39.2857143,40.4285714 37.8571429,41.8571429 30.8571429,41.8571429 C23.8571429,41.8571429 22.4285714,40.2857143 21.8571429,39.8571429 C21.4285714,39.2857143 20,37.8571429 20,30.8571429 C20,23.8571429 21.5714286,22.4285714 22,21.8571429 C22.4285714,21.2857143 24,19.8571429 31,19.8571429 C38,19.8571429 39.4285714,21.4285714 40,21.8571429 C40.4285714,22.4285714 42,23.8571429 42,30.8571429 C42,37.8571429 40.4285714,39.2857143 39.8571429,39.8571429 Z" id="Shape" fill="#FF5A00"></path>
                <path d="M31,0 C13.8571429,0 0,13.8571429 0,31 C0,48 13.7142857,61.7142857 30.5714286,62 C47.8571429,62.2857143 62.2857143,47.8571429 62,30.5714286 C61.7142857,13.7142857 48,0 31,0 Z M48.7142857,48.8571429 C45.2857143,52.2857143 38.7142857,54.2857143 31,54.2857143 C23.2857143,54.2857143 16.5714286,52.2857143 13.2857143,48.8571429 C9.85714286,45.4285714 7.85714286,38.8571429 7.85714286,31.1428571 C7.85714286,23.4285714 9.85714286,16.8571429 13.2857143,13.4285714 C16.7142857,10 23.2857143,8 31,8 C38.7142857,8 45.2857143,10 48.7142857,13.4285714 C52.1428571,16.8571429 54.1428571,23.4285714 54.1428571,31.1428571 C54.1428571,38.8571429 52.1428571,45.4285714 48.7142857,48.8571429 Z" id="Shape" fill="#FF5A00"></path>
            </g>
        </g>
    </g>
</svg>