<?xml version="1.0" encoding="utf-8"?>
<svg version="1.2" baseProfile="tiny-ps" id="logo" xmlns="http://www.w3.org/2000/svg" xmlns:xlink="http://www.w3.org/1999/xlink"
	 viewBox="0 0 640 640" xml:space="preserve">
<title>Salesforce</title>
<rect id="background" fill="#FFFFFF" width="640" height="640"/>
<path id="logo_1_" fill="#0D9DDA" d="M267.67,149.25c20.12-20.97,48.14-33.97,79.13-33.97c41.19,0,77.13,22.97,96.26,57.07
	c16.64-7.44,35.04-11.57,54.41-11.57c74.29,0,134.52,60.76,134.52,135.71S571.76,432.2,497.47,432.2c-9.07,0-17.93-0.91-26.5-2.64
	c-16.85,30.05-48.97,50.37-85.83,50.37c-15.43,0-30.03-3.56-43.02-9.9c-17.08,40.19-56.89,68.37-103.28,68.37
	c-48.31,0-89.49-30.57-105.29-73.44c-6.91,1.46-14.07,2.23-21.41,2.23C54.63,467.18,8,420.06,8,361.94
	c0-38.95,20.95-72.96,52.08-91.15c-6.41-14.76-9.97-31.03-9.97-48.13c0-66.85,54.26-121.04,121.2-121.04
	C210.6,101.62,245.53,120.3,267.67,149.25z"/>
</svg>