<svg xmlns="http://www.w3.org/2000/svg" xmlns:xlink="http://www.w3.org/1999/xlink" width="131" height="35" viewBox="0 0 131 35"><defs><path id="a" d="M96.11 34.27h10.4v11.1h-10.4z"/><path id="e" d="M106.51 39.82c0 3.07-2.33 5.56-5.2 5.56s-5.2-2.49-5.2-5.56c0-3.06 2.33-5.55 5.2-5.55s5.2 2.49 5.2 5.55"/><path id="b" d="M127.4 68.4h-13.83V46.21h13.84z"/><path id="g" d="M113.72 64.98c.28-.4.52-.87.8-1.27s.71-.52 1.05-.24c.18.15 2.56 2.12 4.93 2.12 2.13 0 3.49-1.3 3.49-2.86 0-1.85-1.6-3.02-4.66-4.28-3.14-1.33-5.6-2.96-5.6-6.53 0-2.4 1.84-5.7 6.74-5.7 3.09 0 5.4 1.6 5.7 1.82.25.15.5.58.19 1.04l-.77 1.17c-.25.4-.65.59-1.08.31-.22-.12-2.37-1.54-4.16-1.54-2.6 0-3.48 1.63-3.48 2.77 0 1.76 1.35 2.84 3.91 3.89 3.58 1.44 6.63 3.14 6.63 6.9 0 3.2-2.87 5.81-6.88 5.81a10 10 0 0 1-6.62-2.43c-.28-.24-.5-.46-.19-.98"/><path id="h" d="M133.72 57.47v-7.7h4.2c2.1 0 3.86 1.62 3.86 3.73a3.91 3.91 0 0 1-3.86 3.97zM130.6 67.8c0 .31.24.6.58.6h1.97a.6.6 0 0 0 .58-.6v-7.29h4.4c3.72 0 6.79-3.13 6.79-6.98a6.87 6.87 0 0 0-6.81-6.86h-6.93a.58.58 0 0 0-.58.59z"/><path id="i" d="M157.71 65.9a8.01 8.01 0 0 1-7.95-8.03c0-4.4 3.6-8.1 7.95-8.1a8.1 8.1 0 0 1 7.98 8.1c0 4.43-3.59 8.03-7.98 8.03zm0-19.23c-6.14 0-11.02 5-11.02 11.2a11.03 11.03 0 1 0 22.07 0c0-6.2-4.9-11.2-11.05-11.2z"/><path id="j" d="M174.93 49.59h-4.99a.59.59 0 0 1-.58-.6v-1.73c0-.31.24-.59.58-.59h13.16c.33 0 .58.28.58.59V49c0 .3-.25.59-.58.59h-4.99V67.8a.6.6 0 0 1-.58.58h-2.02a.6.6 0 0 1-.58-.58z"/><path id="k" d="M187.43 47.13c.06-.24.3-.46.55-.46h.48c.18 0 .45.15.51.34l6.3 15.85h.13L201.67 47c.07-.19.3-.34.52-.34h.48c.24 0 .48.22.54.46l3.72 20.84c.09.44-.12.72-.55.72h-1.96a.63.63 0 0 1-.57-.44L201.6 54.4h-.08l-5.44 14.27c-.06.18-.24.34-.51.34h-.54c-.24 0-.46-.16-.52-.34l-5.46-14.27h-.12l-2.17 13.86c-.03.22-.3.44-.55.44h-1.96c-.42 0-.63-.28-.57-.72z"/><path id="c" d="M223.93 68.69v-21.9h-13.26v21.9h13.26z"/><path id="m" d="M210.67 47.38c0-.3.24-.59.58-.59h12.1c.34 0 .58.28.58.6v1.75c0 .3-.24.59-.57.59h-9.57v6.38h8.09c.3 0 .57.28.57.6v1.75c0 .34-.27.6-.57.6h-8.1v6.72h9.58c.33 0 .57.28.57.6v1.72c0 .3-.24.59-.57.59h-12.11a.58.58 0 0 1-.58-.6z"/><path id="n" d="M106.88 50.86c.08.1.09.22 0 .31-.3.36-1.08 1.24-1.57 1.78-.14.16-.4.05-.4-.16l.1-3.27c.01-.2.25-.3.4-.16l1.47 1.5zm-8.98-1.5a.23.23 0 0 1 .39.16l.1 3.27c0 .21-.26.32-.4.16-.5-.54-1.26-1.42-1.58-1.78a.23.23 0 0 1 .01-.3c.3-.33 1.03-1.06 1.48-1.5zm7.26 7.4c-.1-.35 0-.73.27-.97l4.66-4.16a.63.63 0 0 0 .02-.92c-.89-.87-2.7-2.6-3.7-3.6a1.53 1.53 0 0 0-1.08-.44h-7.36c-.4 0-.78.16-1.07.44l-3.71 3.6a.63.63 0 0 0 .02.92l4.66 4.16c.27.24.38.62.27.97l-2.8 9.29c-.08.23-1.65 1.58-2.27 2.12a.13.13 0 0 0 .09.22h5.55c.12 0 .22-.09.24-.21.95-5.7 1.71-8.42 2.24-9.74a.5.5 0 0 1 .92 0c.53 1.32 1.29 4.03 2.24 9.74.02.12.12.21.25.21h5.55c.11 0 .17-.14.08-.22-.62-.54-2.19-1.9-2.27-2.12z"/><clipPath id="d"><use xlink:href="#a"/></clipPath><clipPath id="f"><use xlink:href="#b"/></clipPath><clipPath id="l"><use xlink:href="#c"/></clipPath></defs><g clip-path="url(#d)" transform="translate(-93 -34)"><use fill="#e85224" xlink:href="#e"/></g><g clip-path="url(#f)" transform="translate(-93 -34)"><use fill="#e85224" xlink:href="#g"/></g><use fill="#e85224" xlink:href="#h" transform="translate(-93 -34)"/><use fill="#e85224" xlink:href="#i" transform="translate(-93 -34)"/><use fill="#e85224" xlink:href="#j" transform="translate(-93 -34)"/><use fill="#e85224" xlink:href="#k" transform="translate(-93 -34)"/><g clip-path="url(#l)" transform="translate(-93 -34)"><use fill="#e85224" xlink:href="#m"/></g><use fill="#353431" xlink:href="#n" transform="translate(-93 -34)"/></svg>